<svg xmlns="http://www.w3.org/2000/svg" viewBox="0 0 383.92 448.03"><defs><style>.cls-1{fill:#f5f5f5;}</style></defs><g id="Camada_2" data-name="Camada 2"><g id="Camada_1-2" data-name="Camada 1"><path class="cls-1" d="M285.15,104.86c-40.32,0-57.36,19.24-85.44,19.24C170.92,124.1,149,105,114,105c-34.2,0-70.67,20.88-93.83,56.45-32.52,50.16-27,144.63,25.67,225.11,18.84,28.81,44,61.12,77,61.47h.6c28.68,0,37.2-18.78,76.67-19h.6c38.88,0,46.68,18.89,75.24,18.89h.6c33-.35,59.51-36.15,78.35-64.85,13.56-20.64,18.6-31,29-54.35-76.19-28.92-88.43-136.93-13.08-178.34-23-28.8-55.32-45.48-85.79-45.48Z"/><path class="cls-1" d="M276.27,0c-24,1.63-52,16.91-68.4,36.86-14.88,18.08-27.12,44.9-22.32,70.91h1.92c25.56,0,51.72-15.39,67-35.11C269.19,53.89,280.35,27.29,276.27,0Z"/></g></g></svg>